<svg width="673" height="401" viewBox="0 0 673 401" fill="none" xmlns="http://www.w3.org/2000/svg">
<rect x="57.25" y="274.222" width="14" height="28" rx="2" fill="#7FD1C3"/>
<rect x="79.25" y="274.222" width="14" height="28" rx="2" fill="#E7FA9A"/>
<rect x="101.25" y="239.222" width="14" height="63" rx="2" fill="#7FD1C3"/>
<rect x="123.25" y="229.222" width="14" height="73" rx="2" fill="#7FD1C3"/>
<rect x="145.25" y="245.222" width="14" height="57" rx="2" fill="#E7FA9A"/>
<rect x="167.25" y="229.222" width="14" height="73" rx="2" fill="#E7FA9A"/>
<rect x="189.25" y="139.222" width="14" height="163" rx="2" fill="#E7FA9A"/>
<rect x="211.25" y="130.222" width="14" height="172" rx="2" fill="#E7FA9A"/>
<rect x="233.25" y="102.222" width="14" height="200" rx="2" fill="#E7FA9A"/>
<rect x="255.25" y="146.222" width="14" height="156" rx="2" fill="#E7FA9A"/>
<rect x="277.25" y="79.2217" width="14" height="223" rx="2" fill="#FEFFB7"/>
<rect x="299.25" y="61.2217" width="14" height="241" rx="2" fill="#FF98A7"/>
<rect x="321.25" y="42.2217" width="14" height="260" rx="2" fill="#FF98A7"/>
<rect x="343.25" y="20.2217" width="14" height="282" rx="2" fill="#FF98A7"/>
<rect x="365.25" y="0.22168" width="14" height="302" rx="2" fill="#FF98A7"/>
<rect x="387.25" y="31.2217" width="14" height="271" rx="2" fill="#FF98A7"/>
<rect x="409.25" y="42.2217" width="14" height="260" rx="2" fill="#FF98A7"/>
<rect x="431.25" y="79.2217" width="14" height="223" rx="2" fill="#FEFFB7"/>
<rect x="453.25" y="42.2217" width="14" height="260" rx="2" fill="#FF98A7"/>
<rect x="475.25" y="79.2217" width="14" height="223" rx="2" fill="#FEFFB7"/>
<rect x="497.25" y="149.222" width="14" height="153" rx="2" fill="#FEFFB7"/>
<rect x="519.25" y="171.222" width="14" height="131" rx="2" fill="#FEFFB7"/>
<rect x="541.25" y="234.222" width="14" height="68" rx="2" fill="#7FD1C3"/>
<rect x="563.25" y="257.222" width="14" height="45" rx="2" fill="#E7FA9A"/>
<rect x="585.25" y="274.222" width="14" height="28" rx="2" fill="#E7FA9A"/>
<path d="M62.25 269.222L103.517 217.146C104.001 216.536 104.599 216.025 105.278 215.643L126.912 203.475C127.79 202.981 128.529 202.273 129.062 201.418L170.59 134.781C171.025 134.082 171.6 133.481 172.278 133.013L214.713 103.781C215.714 103.091 216.901 102.722 218.117 102.722H433.763C435.919 102.722 437.909 103.879 438.976 105.752L459.323 141.472C459.606 141.969 459.959 142.423 460.371 142.821L473.243 155.233C473.58 155.558 473.953 155.842 474.356 156.08L505.699 174.601C506.393 175.01 506.997 175.556 507.475 176.204L528.782 205.087C529.093 205.508 529.457 205.887 529.866 206.214L601.927 263.765C603.099 264.702 603.879 266.044 604.11 267.527L607.957 292.148C608.414 295.069 610.929 297.222 613.885 297.222H615.75" stroke="url(#paint0_linear_3802_19133)" stroke-dasharray="3 3"/>
<line x1="200" y1="86.7217" x2="608" y2="86.7217" stroke="url(#paint1_linear_3802_19133)"/>
<rect x="57" y="76.2217" width="154" height="21" rx="10.5" fill="url(#paint2_linear_3802_19133)"/>
<path d="M72.79 90.3017C72.1 90.315 71.5033 90.1583 71 89.8317C70.4967 89.5017 70.1117 89.045 69.845 88.4617C69.5783 87.875 69.4533 87.205 69.47 86.4517C69.4867 85.6217 69.65 84.93 69.96 84.3767C70.2733 83.8233 70.6883 83.4083 71.205 83.1317C71.725 82.855 72.3033 82.715 72.94 82.7117C73.6 82.7083 74.175 82.8633 74.665 83.1767C75.155 83.4867 75.5317 83.9267 75.795 84.4967C76.0617 85.0667 76.1867 85.735 76.17 86.5017C76.1533 87.3317 75.9967 88.0267 75.7 88.5867C75.4033 89.1433 75.0033 89.565 74.5 89.8517C73.9967 90.1383 73.4267 90.2883 72.79 90.3017ZM72.82 89.4017C73.48 89.4017 74.005 89.1533 74.395 88.6567C74.785 88.1567 74.98 87.4217 74.98 86.4517C74.98 85.9383 74.9017 85.4667 74.745 85.0367C74.5917 84.6033 74.36 84.2567 74.05 83.9967C73.7433 83.7333 73.36 83.6017 72.9 83.6017C72.4967 83.6017 72.125 83.705 71.785 83.9117C71.445 84.1183 71.1717 84.4367 70.965 84.8667C70.7617 85.2967 70.66 85.8483 70.66 86.5217C70.66 87.0317 70.74 87.5067 70.9 87.9467C71.0633 88.3833 71.305 88.735 71.625 89.0017C71.945 89.2683 72.3433 89.4017 72.82 89.4017ZM77.5167 90.2217V82.7917H78.0267C78.3334 82.7917 78.6367 82.7783 78.9367 82.7517C79.2367 82.725 79.5534 82.7117 79.8867 82.7117C80.4267 82.7117 80.8917 82.7967 81.2817 82.9667C81.6717 83.1333 81.9717 83.3967 82.1817 83.7567C82.3917 84.1133 82.4967 84.5783 82.4967 85.1517C82.4967 85.9617 82.2517 86.5933 81.7617 87.0467C81.2751 87.4967 80.5667 87.7217 79.6367 87.7217C79.4034 87.7217 79.2101 87.72 79.0567 87.7167C78.9067 87.7133 78.7867 87.7117 78.6967 87.7117V90.2217H77.5167ZM78.6967 86.8117C78.8467 86.8317 78.9951 86.845 79.1417 86.8517C79.2917 86.8583 79.4334 86.8617 79.5667 86.8617C79.8767 86.8617 80.1667 86.8183 80.4367 86.7317C80.7067 86.6417 80.9234 86.475 81.0867 86.2317C81.2534 85.985 81.3367 85.625 81.3367 85.1517C81.3367 84.5817 81.1834 84.1683 80.8767 83.9117C80.5734 83.6517 80.1334 83.5317 79.5567 83.5517C79.4134 83.555 79.2667 83.5633 79.1167 83.5767C78.9667 83.59 78.8267 83.6117 78.6967 83.6417V86.8117ZM85.4274 90.2217V83.6917H83.1374V82.7917H88.8924V83.6917H86.6074V90.2217H85.4274ZM90.1808 90.2217V82.7917H91.3608V90.2217H90.1808ZM92.9739 90.2217L93.7389 82.7917H95.3889L96.6989 86.9717L97.0839 88.5617L97.4289 86.9717L98.6739 82.7917H100.254L101.144 90.2217H99.9739L99.5339 85.7167L99.3939 83.6667L98.8839 85.7167L97.4189 90.2917H96.7139L95.1739 85.7167L94.6339 83.6667L94.4889 85.7167L94.0989 90.2217H92.9739ZM102.739 90.2217V82.7917H103.919V90.2217H102.739ZM105.458 90.2217L105.238 89.8117L108.958 84.0617L109.238 83.7117H105.648V82.7917H110.568L110.798 83.1817L107.158 88.8817L106.798 89.3117H110.518V90.2217H105.458ZM111.96 90.2217V82.7917H116.28V83.6917H113.14V85.9517H115.47V86.8417H113.14V89.3017H116.63V90.2217H111.96ZM119.665 90.2217V82.7917H120.835V89.2917H123.755V90.2217H119.665ZM124.919 90.2217V82.7917H129.239V83.6917H126.099V85.9517H128.429V86.8417H126.099V89.3017H129.589V90.2217H124.919ZM130.827 90.2217V82.7917H131.897L135.007 87.6017L135.997 89.4517H135.647L135.517 87.3717V82.7917H136.607V90.2217H135.487L132.497 85.5917L131.347 83.5017H131.777L131.897 85.7517V90.2217H130.827ZM137.966 86.5417C137.966 85.8983 138.056 85.3383 138.236 84.8617C138.416 84.3817 138.665 83.9833 138.981 83.6667C139.301 83.3467 139.673 83.1083 140.096 82.9517C140.52 82.7917 140.975 82.7117 141.461 82.7117C141.835 82.7117 142.133 82.7283 142.356 82.7617C142.583 82.7917 142.783 82.83 142.956 82.8767C143.133 82.92 143.33 82.9617 143.546 83.0017L143.496 84.0467C143.26 83.9267 142.988 83.8283 142.681 83.7517C142.378 83.6717 141.953 83.6317 141.406 83.6317C140.973 83.6317 140.588 83.7417 140.251 83.9617C139.918 84.1817 139.656 84.4983 139.466 84.9117C139.276 85.325 139.181 85.825 139.181 86.4117C139.181 86.9717 139.261 87.4783 139.421 87.9317C139.581 88.385 139.825 88.745 140.151 89.0117C140.481 89.275 140.9 89.4067 141.406 89.4067C141.676 89.4067 141.946 89.385 142.216 89.3417C142.49 89.2983 142.696 89.2317 142.836 89.1417V87.1717L143.131 87.3767L141.526 87.3067V86.4517H143.966V89.7667C143.856 89.7733 143.733 89.805 143.596 89.8617C143.46 89.915 143.296 89.9767 143.106 90.0467C142.916 90.1133 142.685 90.1717 142.411 90.2217C142.141 90.275 141.816 90.3017 141.436 90.3017C140.7 90.3017 140.073 90.14 139.556 89.8167C139.04 89.49 138.645 89.0433 138.371 88.4767C138.101 87.91 137.966 87.265 137.966 86.5417ZM147.107 90.2217V83.6917H144.817V82.7917H150.572V83.6917H148.287V90.2217H147.107ZM151.735 90.2217V82.7917H152.915V86.0217H156.305V82.7917H157.475V90.2217H156.305V86.9217H152.915V90.2217H151.735ZM163.845 90.3017C163.155 90.315 162.558 90.1583 162.055 89.8317C161.551 89.5017 161.166 89.045 160.9 88.4617C160.633 87.875 160.508 87.205 160.525 86.4517C160.541 85.6217 160.705 84.93 161.015 84.3767C161.328 83.8233 161.743 83.4083 162.26 83.1317C162.78 82.855 163.358 82.715 163.995 82.7117C164.655 82.7083 165.23 82.8633 165.72 83.1767C166.21 83.4867 166.586 83.9267 166.85 84.4967C167.116 85.0667 167.241 85.735 167.225 86.5017C167.208 87.3317 167.051 88.0267 166.755 88.5867C166.458 89.1433 166.058 89.565 165.555 89.8517C165.051 90.1383 164.481 90.2883 163.845 90.3017ZM163.875 89.4017C164.535 89.4017 165.06 89.1533 165.45 88.6567C165.84 88.1567 166.035 87.4217 166.035 86.4517C166.035 85.9383 165.956 85.4667 165.8 85.0367C165.646 84.6033 165.415 84.2567 165.105 83.9967C164.798 83.7333 164.415 83.6017 163.955 83.6017C163.551 83.6017 163.18 83.705 162.84 83.9117C162.5 84.1183 162.226 84.4367 162.02 84.8667C161.816 85.2967 161.715 85.8483 161.715 86.5217C161.715 87.0317 161.795 87.5067 161.955 87.9467C162.118 88.3833 162.36 88.735 162.68 89.0017C163 89.2683 163.398 89.4017 163.875 89.4017ZM168.571 90.2217V82.7917H172.881V83.6917H169.751V86.0417H172.091V86.9417H169.751V90.2217H168.571ZM177.526 90.3017C177.203 90.3017 176.896 90.2767 176.606 90.2267C176.32 90.18 176.073 90.1233 175.866 90.0567C175.66 89.99 175.511 89.9283 175.421 89.8717L175.666 88.9167C175.793 88.99 175.951 89.0617 176.141 89.1317C176.331 89.2017 176.54 89.26 176.766 89.3067C176.993 89.35 177.223 89.3717 177.456 89.3717C177.913 89.3717 178.261 89.295 178.501 89.1417C178.741 88.9883 178.861 88.7383 178.861 88.3917C178.861 88.1583 178.801 87.9633 178.681 87.8067C178.561 87.6467 178.381 87.4967 178.141 87.3567C177.905 87.2167 177.608 87.0617 177.251 86.8917C176.948 86.7417 176.653 86.5617 176.366 86.3517C176.083 86.1417 175.85 85.895 175.666 85.6117C175.483 85.3283 175.391 85.0033 175.391 84.6367C175.391 84.2767 175.461 83.975 175.601 83.7317C175.745 83.485 175.936 83.2867 176.176 83.1367C176.416 82.9867 176.683 82.8783 176.976 82.8117C177.273 82.745 177.576 82.7117 177.886 82.7117C178.34 82.7117 178.715 82.7567 179.011 82.8467C179.308 82.9333 179.521 83.02 179.651 83.1067L179.421 84.0317C179.251 83.925 179.051 83.83 178.821 83.7467C178.595 83.66 178.283 83.6167 177.886 83.6167C177.643 83.6167 177.418 83.6483 177.211 83.7117C177.005 83.775 176.838 83.8717 176.711 84.0017C176.585 84.1317 176.521 84.2983 176.521 84.5017C176.521 84.7317 176.568 84.925 176.661 85.0817C176.758 85.235 176.913 85.38 177.126 85.5167C177.34 85.65 177.62 85.8067 177.966 85.9867C178.216 86.1167 178.463 86.255 178.706 86.4017C178.95 86.545 179.17 86.705 179.366 86.8817C179.566 87.0583 179.725 87.2617 179.841 87.4917C179.961 87.7183 180.021 87.9783 180.021 88.2717C180.021 88.725 179.915 89.1033 179.701 89.4067C179.491 89.7067 179.198 89.9317 178.821 90.0817C178.448 90.2283 178.016 90.3017 177.526 90.3017ZM182.996 90.2217V83.6917H180.706V82.7917H186.461V83.6917H184.176V90.2217H182.996ZM187.458 90.2217H186.218L189.038 82.7117H190.183L192.963 90.2217H191.688L189.833 84.6367L189.623 83.9217L189.403 84.6367L187.458 90.2217ZM187.618 88.3967L187.818 87.5317H191.228L191.438 88.3967H187.618ZM195.03 90.2217V87.0617L195.205 87.7067L192.585 82.7917H193.84L195.44 85.9517L195.75 86.7117H195.57L195.83 85.9517L197.405 82.7917H198.64L196.045 87.7067L196.22 87.0767V90.2217H195.03Z" fill="#071B5F"/>
<rect y="311.222" width="673" height="32" rx="8" fill="#FFD9DE"/>
<path d="M24.6562 328.565V325.878H23.3438V328.565H24.6562ZM24.6562 331.222V329.878H23.3438V331.222H24.6562ZM16.6562 333.222L24 320.565L31.3438 333.222H16.6562Z" fill="#FF5B73"/>
<path d="M41.79 330.802C41.1 330.815 40.5033 330.658 40 330.332C39.4967 330.002 39.1117 329.545 38.845 328.962C38.5783 328.375 38.4533 327.705 38.47 326.952C38.4867 326.122 38.65 325.43 38.96 324.877C39.2733 324.323 39.6883 323.908 40.205 323.632C40.725 323.355 41.3033 323.215 41.94 323.212C42.6 323.208 43.175 323.363 43.665 323.677C44.155 323.987 44.5317 324.427 44.795 324.997C45.0617 325.567 45.1867 326.235 45.17 327.002C45.1533 327.832 44.9967 328.527 44.7 329.087C44.4033 329.643 44.0033 330.065 43.5 330.352C42.9967 330.638 42.4267 330.788 41.79 330.802ZM41.82 329.902C42.48 329.902 43.005 329.653 43.395 329.157C43.785 328.657 43.98 327.922 43.98 326.952C43.98 326.438 43.9017 325.967 43.745 325.537C43.5917 325.103 43.36 324.757 43.05 324.497C42.7433 324.233 42.36 324.102 41.9 324.102C41.4967 324.102 41.125 324.205 40.785 324.412C40.445 324.618 40.1717 324.937 39.965 325.367C39.7617 325.797 39.66 326.348 39.66 327.022C39.66 327.532 39.74 328.007 39.9 328.447C40.0633 328.883 40.305 329.235 40.625 329.502C40.945 329.768 41.3433 329.902 41.82 329.902ZM46.4467 333.192V325.152H47.4967V325.832L47.5967 325.952V330.262L47.5867 330.492L47.5967 331.402V333.192H46.4467ZM48.5017 330.802C48.1584 330.802 47.8717 330.758 47.6417 330.672C47.4117 330.585 47.2634 330.515 47.1967 330.462L47.5967 329.722C47.7034 329.812 47.8367 329.877 47.9967 329.917C48.1601 329.953 48.3551 329.972 48.5817 329.972C48.8684 329.972 49.1267 329.892 49.3567 329.732C49.5867 329.568 49.7684 329.332 49.9017 329.022C50.0384 328.708 50.1101 328.327 50.1167 327.877C50.1234 327.21 50.0067 326.727 49.7667 326.427C49.5301 326.123 49.1984 325.972 48.7717 325.972C48.5117 325.972 48.2801 326.022 48.0767 326.122C47.8767 326.218 47.7167 326.313 47.5967 326.407L47.4167 325.837C47.4934 325.757 47.5984 325.657 47.7317 325.537C47.8651 325.417 48.0417 325.312 48.2617 325.222C48.4817 325.128 48.7584 325.082 49.0917 325.082C49.4851 325.082 49.8484 325.178 50.1817 325.372C50.5184 325.562 50.7884 325.853 50.9917 326.247C51.1951 326.637 51.2967 327.132 51.2967 327.732C51.2967 328.335 51.1801 328.868 50.9467 329.332C50.7167 329.792 50.3917 330.152 49.9717 330.412C49.5551 330.672 49.0651 330.802 48.5017 330.802ZM54.1698 330.802C53.9064 330.802 53.6748 330.76 53.4748 330.677C53.2748 330.593 53.1181 330.447 53.0048 330.237C52.8948 330.023 52.8398 329.722 52.8398 329.332V326.002H52.1198V325.382C52.3664 325.312 52.5548 325.253 52.6848 325.207C52.8148 325.157 52.9098 325.052 52.9698 324.892C52.9964 324.818 53.0264 324.732 53.0598 324.632C53.0931 324.528 53.1298 324.415 53.1698 324.292C53.2098 324.165 53.2531 324.028 53.2998 323.882H53.9898V325.152H55.5498V326.002H53.9898V328.722C53.9898 329.082 54.0048 329.345 54.0348 329.512C54.0681 329.675 54.1281 329.78 54.2148 329.827C54.3048 329.87 54.4364 329.892 54.6098 329.892C54.7031 329.892 54.8098 329.882 54.9298 329.862C55.0531 329.838 55.1698 329.81 55.2798 329.777C55.3931 329.743 55.4798 329.708 55.5398 329.672L55.7298 330.332C55.6298 330.408 55.4948 330.483 55.3248 330.557C55.1581 330.627 54.9731 330.685 54.7698 330.732C54.5698 330.778 54.3698 330.802 54.1698 330.802ZM56.8883 330.722V325.162H58.0383V330.722H56.8883ZM57.3983 324.177C57.2049 324.177 57.0349 324.115 56.8883 323.992C56.7449 323.868 56.6733 323.7 56.6733 323.487C56.6733 323.34 56.7133 323.208 56.7933 323.092C56.8766 322.972 56.9816 322.877 57.1083 322.807C57.2349 322.733 57.3666 322.697 57.5033 322.697C57.7399 322.697 57.9183 322.763 58.0383 322.897C58.1583 323.03 58.2183 323.193 58.2183 323.387C58.2183 323.617 58.1349 323.807 57.9683 323.957C57.8049 324.103 57.6149 324.177 57.3983 324.177ZM59.7975 330.722V325.162H60.8325L60.8375 325.752C60.9742 325.658 61.1442 325.56 61.3475 325.457C61.5542 325.353 61.7775 325.265 62.0175 325.192C62.2575 325.118 62.4975 325.078 62.7375 325.072C63.1375 325.058 63.4592 325.12 63.7025 325.257C63.9458 325.393 64.1225 325.622 64.2325 325.942C64.3458 326.262 64.4025 326.693 64.4025 327.237V330.722H63.2525V327.307C63.2525 327.003 63.2258 326.757 63.1725 326.567C63.1225 326.373 63.0275 326.233 62.8875 326.147C62.7475 326.06 62.5408 326.023 62.2675 326.037C62.0942 326.04 61.8842 326.083 61.6375 326.167C61.3942 326.247 61.1642 326.368 60.9475 326.532V330.722H59.7975ZM64.3425 326.537L64.0975 325.807C64.2275 325.697 64.3992 325.587 64.6125 325.477C64.8292 325.367 65.0658 325.273 65.3225 325.197C65.5825 325.117 65.8442 325.075 66.1075 325.072C66.5042 325.065 66.8275 325.128 67.0775 325.262C67.3275 325.395 67.5108 325.622 67.6275 325.942C67.7475 326.258 67.8075 326.688 67.8075 327.232V330.722H66.6525V327.307C66.6525 327.003 66.6275 326.757 66.5775 326.567C66.5308 326.373 66.4375 326.233 66.2975 326.147C66.1608 326.06 65.9542 326.023 65.6775 326.037C65.4842 326.04 65.2642 326.088 65.0175 326.182C64.7708 326.272 64.5458 326.39 64.3425 326.537ZM69.525 330.722V325.162H70.675V330.722H69.525ZM70.035 324.177C69.8417 324.177 69.6717 324.115 69.525 323.992C69.3817 323.868 69.31 323.7 69.31 323.487C69.31 323.34 69.35 323.208 69.43 323.092C69.5133 322.972 69.6183 322.877 69.745 322.807C69.8717 322.733 70.0033 322.697 70.14 322.697C70.3767 322.697 70.555 322.763 70.675 322.897C70.795 323.03 70.855 323.193 70.855 323.387C70.855 323.617 70.7717 323.807 70.605 323.957C70.4417 324.103 70.2517 324.177 70.035 324.177ZM72.0842 330.722L71.8742 330.322L74.5242 326.422L74.8142 326.012H72.1742V325.152H76.1942L76.3642 325.622L73.7342 329.482L73.4442 329.892H76.2642V330.722H72.0842ZM78.8812 330.802C78.5478 330.802 78.2512 330.737 77.9912 330.607C77.7345 330.473 77.5312 330.287 77.3812 330.047C77.2345 329.803 77.1612 329.517 77.1612 329.187C77.1612 328.83 77.2562 328.528 77.4462 328.282C77.6395 328.032 77.8978 327.837 78.2212 327.697C78.4345 327.61 78.6662 327.542 78.9162 327.492C79.1662 327.438 79.4162 327.402 79.6662 327.382C79.9162 327.358 80.1478 327.347 80.3612 327.347L80.6012 327.652L80.3612 328.057C80.2312 328.057 80.0745 328.067 79.8912 328.087C79.7112 328.103 79.5328 328.132 79.3562 328.172C79.1795 328.208 79.0295 328.257 78.9062 328.317C78.7362 328.393 78.5945 328.492 78.4812 328.612C78.3678 328.732 78.3112 328.898 78.3112 329.112C78.3112 329.392 78.3878 329.603 78.5412 329.747C78.6978 329.89 78.9295 329.962 79.2362 329.962C79.3928 329.962 79.5512 329.938 79.7112 329.892C79.8712 329.845 80.0095 329.792 80.1262 329.732C80.2462 329.672 80.3245 329.62 80.3612 329.577L80.5912 329.822L80.4262 330.252C80.2795 330.385 80.0678 330.51 79.7912 330.627C79.5145 330.743 79.2112 330.802 78.8812 330.802ZM81.5162 330.722H80.4262V329.892H80.3612V326.822C80.3612 326.495 80.2745 326.28 80.1012 326.177C79.9312 326.07 79.6878 326.017 79.3712 326.017C79.1612 326.017 78.9445 326.038 78.7212 326.082C78.4978 326.122 78.2928 326.173 78.1062 326.237C77.9195 326.297 77.7762 326.358 77.6762 326.422L77.4062 325.592C77.4828 325.545 77.6295 325.48 77.8462 325.397C78.0662 325.313 78.3212 325.238 78.6112 325.172C78.9045 325.102 79.1945 325.067 79.4812 325.067C79.8978 325.067 80.2578 325.115 80.5612 325.212C80.8678 325.308 81.1028 325.488 81.2662 325.752C81.4328 326.012 81.5162 326.39 81.5162 326.887V330.722ZM84.6971 330.802C84.4338 330.802 84.2021 330.76 84.0021 330.677C83.8021 330.593 83.6454 330.447 83.5321 330.237C83.4221 330.023 83.3671 329.722 83.3671 329.332V326.002H82.6471V325.382C82.8938 325.312 83.0821 325.253 83.2121 325.207C83.3421 325.157 83.4371 325.052 83.4971 324.892C83.5238 324.818 83.5538 324.732 83.5871 324.632C83.6204 324.528 83.6571 324.415 83.6971 324.292C83.7371 324.165 83.7804 324.028 83.8271 323.882H84.5171V325.152H86.0771V326.002H84.5171V328.722C84.5171 329.082 84.5321 329.345 84.5621 329.512C84.5954 329.675 84.6554 329.78 84.7421 329.827C84.8321 329.87 84.9638 329.892 85.1371 329.892C85.2304 329.892 85.3371 329.882 85.4571 329.862C85.5804 329.838 85.6971 329.81 85.8071 329.777C85.9204 329.743 86.0071 329.708 86.0671 329.672L86.2571 330.332C86.1571 330.408 86.0221 330.483 85.8521 330.557C85.6854 330.627 85.5004 330.685 85.2971 330.732C85.0971 330.778 84.8971 330.802 84.6971 330.802ZM87.4156 330.722V325.162H88.5656V330.722H87.4156ZM87.9256 324.177C87.7323 324.177 87.5623 324.115 87.4156 323.992C87.2723 323.868 87.2006 323.7 87.2006 323.487C87.2006 323.34 87.2406 323.208 87.3206 323.092C87.404 322.972 87.509 322.877 87.6356 322.807C87.7623 322.733 87.894 322.697 88.0306 322.697C88.2673 322.697 88.4456 322.763 88.5656 322.897C88.6856 323.03 88.7456 323.193 88.7456 323.387C88.7456 323.617 88.6623 323.807 88.4956 323.957C88.3323 324.103 88.1423 324.177 87.9256 324.177ZM92.4098 330.802C91.9565 330.802 91.5715 330.722 91.2548 330.562C90.9382 330.402 90.6815 330.183 90.4848 329.907C90.2882 329.63 90.1448 329.313 90.0548 328.957C89.9682 328.597 89.9265 328.218 89.9298 327.822C89.9398 327.225 90.0582 326.723 90.2848 326.317C90.5115 325.91 90.8182 325.603 91.2048 325.397C91.5915 325.187 92.0265 325.082 92.5098 325.082C93.1165 325.082 93.6015 325.22 93.9648 325.497C94.3315 325.77 94.5948 326.133 94.7548 326.587C94.9182 327.037 94.9965 327.525 94.9898 328.052C94.9798 328.648 94.8615 329.152 94.6348 329.562C94.4115 329.968 94.1065 330.277 93.7198 330.487C93.3365 330.697 92.8998 330.802 92.4098 330.802ZM92.4398 329.987C92.8965 329.993 93.2398 329.822 93.4698 329.472C93.7032 329.118 93.8198 328.63 93.8198 328.007C93.8198 327.62 93.7732 327.27 93.6798 326.957C93.5865 326.64 93.4398 326.387 93.2398 326.197C93.0432 326.007 92.7898 325.91 92.4798 325.907C92.0265 325.897 91.6848 326.06 91.4548 326.397C91.2248 326.733 91.1098 327.213 91.1098 327.837C91.1098 328.223 91.1565 328.578 91.2498 328.902C91.3432 329.225 91.4882 329.485 91.6848 329.682C91.8815 329.878 92.1332 329.98 92.4398 329.987ZM96.3112 330.722V325.162H97.3462L97.3512 325.752C97.4878 325.658 97.6595 325.56 97.8662 325.457C98.0762 325.353 98.3012 325.265 98.5412 325.192C98.7845 325.118 99.0262 325.078 99.2662 325.072C99.8628 325.055 100.291 325.21 100.551 325.537C100.811 325.86 100.941 326.43 100.941 327.247V330.722H99.7812V327.307C99.7812 326.84 99.7178 326.505 99.5912 326.302C99.4678 326.098 99.1978 326.008 98.7812 326.032C98.6645 326.035 98.5295 326.057 98.3762 326.097C98.2262 326.133 98.0712 326.188 97.9112 326.262C97.7545 326.332 97.6045 326.422 97.4612 326.532V330.722H96.3112ZM103.924 327.037C103.924 326.42 104.016 325.875 104.199 325.402C104.386 324.928 104.641 324.528 104.964 324.202C105.287 323.875 105.657 323.628 106.074 323.462C106.494 323.295 106.936 323.212 107.399 323.212C107.772 323.212 108.086 323.232 108.339 323.272C108.596 323.308 108.806 323.348 108.969 323.392C109.132 323.435 109.264 323.468 109.364 323.492L109.194 324.537C109.141 324.503 109.049 324.457 108.919 324.397C108.789 324.337 108.607 324.282 108.374 324.232C108.141 324.178 107.841 324.152 107.474 324.152C106.994 324.152 106.576 324.267 106.219 324.497C105.862 324.723 105.586 325.048 105.389 325.472C105.196 325.892 105.099 326.39 105.099 326.967C105.099 327.533 105.194 328.037 105.384 328.477C105.577 328.913 105.854 329.257 106.214 329.507C106.574 329.757 107.002 329.882 107.499 329.882C107.746 329.882 107.991 329.858 108.234 329.812C108.481 329.765 108.699 329.707 108.889 329.637C109.082 329.567 109.222 329.495 109.309 329.422V330.412C109.166 330.468 109.007 330.527 108.834 330.587C108.661 330.647 108.461 330.697 108.234 330.737C108.011 330.78 107.746 330.802 107.439 330.802C106.729 330.802 106.111 330.645 105.584 330.332C105.057 330.015 104.649 329.575 104.359 329.012C104.069 328.445 103.924 327.787 103.924 327.037ZM112.8 330.802C112.347 330.802 111.962 330.722 111.645 330.562C111.329 330.402 111.072 330.183 110.875 329.907C110.679 329.63 110.535 329.313 110.445 328.957C110.359 328.597 110.317 328.218 110.32 327.822C110.33 327.225 110.449 326.723 110.675 326.317C110.902 325.91 111.209 325.603 111.595 325.397C111.982 325.187 112.417 325.082 112.9 325.082C113.507 325.082 113.992 325.22 114.355 325.497C114.722 325.77 114.985 326.133 115.145 326.587C115.309 327.037 115.387 327.525 115.38 328.052C115.37 328.648 115.252 329.152 115.025 329.562C114.802 329.968 114.497 330.277 114.11 330.487C113.727 330.697 113.29 330.802 112.8 330.802ZM112.83 329.987C113.287 329.993 113.63 329.822 113.86 329.472C114.094 329.118 114.21 328.63 114.21 328.007C114.21 327.62 114.164 327.27 114.07 326.957C113.977 326.64 113.83 326.387 113.63 326.197C113.434 326.007 113.18 325.91 112.87 325.907C112.417 325.897 112.075 326.06 111.845 326.397C111.615 326.733 111.5 327.213 111.5 327.837C111.5 328.223 111.547 328.578 111.64 328.902C111.734 329.225 111.879 329.485 112.075 329.682C112.272 329.878 112.524 329.98 112.83 329.987ZM116.702 330.722V325.162H117.737L117.742 325.752C117.878 325.658 118.048 325.56 118.252 325.457C118.458 325.353 118.682 325.265 118.922 325.192C119.162 325.118 119.402 325.078 119.642 325.072C120.042 325.058 120.363 325.12 120.607 325.257C120.85 325.393 121.027 325.622 121.137 325.942C121.25 326.262 121.307 326.693 121.307 327.237V330.722H120.157V327.307C120.157 327.003 120.13 326.757 120.077 326.567C120.027 326.373 119.932 326.233 119.792 326.147C119.652 326.06 119.445 326.023 119.172 326.037C118.998 326.04 118.788 326.083 118.542 326.167C118.298 326.247 118.068 326.368 117.852 326.532V330.722H116.702ZM121.247 326.537L121.002 325.807C121.132 325.697 121.303 325.587 121.517 325.477C121.733 325.367 121.97 325.273 122.227 325.197C122.487 325.117 122.748 325.075 123.012 325.072C123.408 325.065 123.732 325.128 123.982 325.262C124.232 325.395 124.415 325.622 124.532 325.942C124.652 326.258 124.712 326.688 124.712 327.232V330.722H123.557V327.307C123.557 327.003 123.532 326.757 123.482 326.567C123.435 326.373 123.342 326.233 123.202 326.147C123.065 326.06 122.858 326.023 122.582 326.037C122.388 326.04 122.168 326.088 121.922 326.182C121.675 326.272 121.45 326.39 121.247 326.537ZM126.339 333.192V325.152H127.389V325.832L127.489 325.952V330.262L127.479 330.492L127.489 331.402V333.192H126.339ZM128.394 330.802C128.051 330.802 127.764 330.758 127.534 330.672C127.304 330.585 127.156 330.515 127.089 330.462L127.489 329.722C127.596 329.812 127.729 329.877 127.889 329.917C128.053 329.953 128.248 329.972 128.474 329.972C128.761 329.972 129.019 329.892 129.249 329.732C129.479 329.568 129.661 329.332 129.794 329.022C129.931 328.708 130.003 328.327 130.009 327.877C130.016 327.21 129.899 326.727 129.659 326.427C129.423 326.123 129.091 325.972 128.664 325.972C128.404 325.972 128.173 326.022 127.969 326.122C127.769 326.218 127.609 326.313 127.489 326.407L127.309 325.837C127.386 325.757 127.491 325.657 127.624 325.537C127.758 325.417 127.934 325.312 128.154 325.222C128.374 325.128 128.651 325.082 128.984 325.082C129.378 325.082 129.741 325.178 130.074 325.372C130.411 325.562 130.681 325.853 130.884 326.247C131.088 326.637 131.189 327.132 131.189 327.732C131.189 328.335 131.073 328.868 130.839 329.332C130.609 329.792 130.284 330.152 129.864 330.412C129.448 330.672 128.958 330.802 128.394 330.802ZM132.552 330.722V322.592H133.712V330.722H132.552ZM137.601 330.802C136.801 330.802 136.185 330.548 135.751 330.042C135.318 329.535 135.101 328.832 135.101 327.932C135.101 327.392 135.196 326.908 135.386 326.482C135.58 326.055 135.863 325.717 136.236 325.467C136.613 325.217 137.075 325.088 137.621 325.082C137.901 325.075 138.165 325.115 138.411 325.202C138.658 325.288 138.876 325.42 139.066 325.597C139.256 325.77 139.406 325.99 139.516 326.257C139.63 326.523 139.691 326.835 139.701 327.192C139.701 327.402 139.7 327.59 139.696 327.757C139.693 327.92 139.678 328.065 139.651 328.192H135.771L135.871 327.462H138.621C138.638 327.195 138.621 326.943 138.571 326.707C138.525 326.467 138.421 326.273 138.261 326.127C138.105 325.977 137.871 325.902 137.561 325.902C137.301 325.902 137.068 325.975 136.861 326.122C136.655 326.265 136.495 326.508 136.381 326.852C136.268 327.195 136.221 327.665 136.241 328.262C136.261 328.682 136.346 329.013 136.496 329.257C136.646 329.5 136.843 329.673 137.086 329.777C137.33 329.88 137.601 329.932 137.901 329.932C138.028 329.932 138.183 329.918 138.366 329.892C138.55 329.862 138.726 329.825 138.896 329.782C139.07 329.735 139.201 329.685 139.291 329.632L139.511 330.292C139.388 330.392 139.22 330.48 139.006 330.557C138.796 330.633 138.568 330.693 138.321 330.737C138.075 330.78 137.835 330.802 137.601 330.802ZM142.598 330.802C142.334 330.802 142.103 330.76 141.903 330.677C141.703 330.593 141.546 330.447 141.433 330.237C141.323 330.023 141.268 329.722 141.268 329.332V326.002H140.548V325.382C140.794 325.312 140.983 325.253 141.113 325.207C141.243 325.157 141.338 325.052 141.398 324.892C141.424 324.818 141.454 324.732 141.488 324.632C141.521 324.528 141.558 324.415 141.598 324.292C141.638 324.165 141.681 324.028 141.728 323.882H142.418V325.152H143.978V326.002H142.418V328.722C142.418 329.082 142.433 329.345 142.463 329.512C142.496 329.675 142.556 329.78 142.643 329.827C142.733 329.87 142.864 329.892 143.038 329.892C143.131 329.892 143.238 329.882 143.358 329.862C143.481 329.838 143.598 329.81 143.708 329.777C143.821 329.743 143.908 329.708 143.968 329.672L144.158 330.332C144.058 330.408 143.923 330.483 143.753 330.557C143.586 330.627 143.401 330.685 143.198 330.732C142.998 330.778 142.798 330.802 142.598 330.802ZM147.406 330.802C146.606 330.802 145.989 330.548 145.556 330.042C145.123 329.535 144.906 328.832 144.906 327.932C144.906 327.392 145.001 326.908 145.191 326.482C145.384 326.055 145.668 325.717 146.041 325.467C146.418 325.217 146.879 325.088 147.426 325.082C147.706 325.075 147.969 325.115 148.216 325.202C148.463 325.288 148.681 325.42 148.871 325.597C149.061 325.77 149.211 325.99 149.321 326.257C149.434 326.523 149.496 326.835 149.506 327.192C149.506 327.402 149.504 327.59 149.501 327.757C149.498 327.92 149.483 328.065 149.456 328.192H145.576L145.676 327.462H148.426C148.443 327.195 148.426 326.943 148.376 326.707C148.329 326.467 148.226 326.273 148.066 326.127C147.909 325.977 147.676 325.902 147.366 325.902C147.106 325.902 146.873 325.975 146.666 326.122C146.459 326.265 146.299 326.508 146.186 326.852C146.073 327.195 146.026 327.665 146.046 328.262C146.066 328.682 146.151 329.013 146.301 329.257C146.451 329.5 146.648 329.673 146.891 329.777C147.134 329.88 147.406 329.932 147.706 329.932C147.833 329.932 147.988 329.918 148.171 329.892C148.354 329.862 148.531 329.825 148.701 329.782C148.874 329.735 149.006 329.685 149.096 329.632L149.316 330.292C149.193 330.392 149.024 330.48 148.811 330.557C148.601 330.633 148.373 330.693 148.126 330.737C147.879 330.78 147.639 330.802 147.406 330.802Z" fill="#FF5B73"/>
<rect x="126.016" y="366.222" width="421" height="34" rx="17" fill="#D9D9D9"/>
<path d="M414.322 388.334C413.356 388.352 412.52 388.133 411.816 387.676C411.111 387.214 410.572 386.574 410.199 385.758C409.825 384.936 409.65 383.998 409.674 382.944C409.697 381.782 409.926 380.813 410.36 380.039C410.798 379.264 411.379 378.683 412.103 378.296C412.831 377.908 413.64 377.712 414.532 377.708C415.456 377.703 416.261 377.92 416.947 378.359C417.633 378.793 418.16 379.409 418.529 380.207C418.902 381.005 419.077 381.94 419.054 383.014C419.03 384.176 418.811 385.149 418.396 385.933C417.98 386.712 417.42 387.302 416.716 387.704C416.011 388.105 415.213 388.315 414.322 388.334ZM414.364 387.074C415.288 387.074 416.023 386.726 416.569 386.031C417.115 385.331 417.388 384.302 417.388 382.944C417.388 382.225 417.278 381.565 417.059 380.963C416.844 380.356 416.52 379.871 416.086 379.507C415.656 379.138 415.12 378.954 414.476 378.954C413.911 378.954 413.391 379.098 412.915 379.388C412.439 379.677 412.056 380.123 411.767 380.725C411.482 381.327 411.34 382.099 411.34 383.042C411.34 383.756 411.452 384.421 411.676 385.037C411.904 385.648 412.243 386.14 412.691 386.514C413.139 386.887 413.696 387.074 414.364 387.074ZM420.841 391.68V380.424H422.311V381.376L422.451 381.544V387.578L422.437 387.9L422.451 389.174V391.68H420.841ZM423.718 388.334C423.237 388.334 422.836 388.273 422.514 388.152C422.192 388.03 421.984 387.932 421.891 387.858L422.451 386.822C422.6 386.948 422.787 387.039 423.011 387.095C423.24 387.146 423.513 387.172 423.83 387.172C424.231 387.172 424.593 387.06 424.915 386.836C425.237 386.607 425.491 386.276 425.678 385.842C425.869 385.403 425.97 384.869 425.979 384.239C425.988 383.305 425.825 382.629 425.489 382.209C425.158 381.784 424.693 381.572 424.096 381.572C423.732 381.572 423.408 381.642 423.123 381.782C422.843 381.917 422.619 382.05 422.451 382.181L422.199 381.383C422.306 381.271 422.453 381.131 422.64 380.963C422.827 380.795 423.074 380.648 423.382 380.522C423.69 380.391 424.077 380.326 424.544 380.326C425.095 380.326 425.603 380.461 426.07 380.732C426.541 380.998 426.919 381.406 427.204 381.957C427.489 382.503 427.631 383.196 427.631 384.036C427.631 384.88 427.468 385.627 427.141 386.276C426.819 386.92 426.364 387.424 425.776 387.788C425.193 388.152 424.507 388.334 423.718 388.334ZM431.653 388.334C431.285 388.334 430.96 388.275 430.68 388.159C430.4 388.042 430.181 387.837 430.022 387.543C429.868 387.244 429.791 386.822 429.791 386.276V381.614H428.783V380.746C429.129 380.648 429.392 380.566 429.574 380.501C429.756 380.431 429.889 380.284 429.973 380.06C430.011 379.957 430.053 379.836 430.099 379.696C430.146 379.551 430.197 379.392 430.253 379.22C430.309 379.042 430.37 378.851 430.435 378.646H431.401V380.424H433.585V381.614H431.401V385.422C431.401 385.926 431.422 386.294 431.464 386.528C431.511 386.756 431.595 386.903 431.716 386.969C431.842 387.029 432.027 387.06 432.269 387.06C432.4 387.06 432.549 387.046 432.717 387.018C432.89 386.985 433.053 386.945 433.207 386.899C433.366 386.852 433.487 386.803 433.571 386.752L433.837 387.676C433.697 387.783 433.508 387.888 433.27 387.991C433.037 388.089 432.778 388.17 432.493 388.236C432.213 388.301 431.933 388.334 431.653 388.334ZM435.459 388.222V380.438H437.069V388.222H435.459ZM436.173 379.059C435.903 379.059 435.665 378.972 435.459 378.8C435.259 378.627 435.158 378.391 435.158 378.093C435.158 377.887 435.214 377.703 435.326 377.54C435.443 377.372 435.59 377.239 435.767 377.141C435.945 377.038 436.129 376.987 436.32 376.987C436.652 376.987 436.901 377.08 437.069 377.267C437.237 377.453 437.321 377.682 437.321 377.953C437.321 378.275 437.205 378.541 436.971 378.751C436.743 378.956 436.477 379.059 436.173 379.059ZM439.532 388.222V380.438H440.981L440.988 381.264C441.179 381.133 441.417 380.995 441.702 380.851C441.991 380.706 442.304 380.582 442.64 380.48C442.976 380.377 443.312 380.321 443.648 380.312C444.208 380.293 444.658 380.379 444.999 380.571C445.34 380.762 445.587 381.082 445.741 381.53C445.9 381.978 445.979 382.582 445.979 383.343V388.222H444.369V383.441C444.369 383.016 444.332 382.671 444.257 382.405C444.187 382.134 444.054 381.938 443.858 381.817C443.662 381.695 443.373 381.644 442.99 381.663C442.747 381.667 442.453 381.728 442.108 381.845C441.767 381.957 441.445 382.127 441.142 382.356V388.222H439.532ZM445.895 382.363L445.552 381.341C445.734 381.187 445.974 381.033 446.273 380.879C446.576 380.725 446.908 380.594 447.267 380.487C447.631 380.375 447.997 380.316 448.366 380.312C448.921 380.302 449.374 380.391 449.724 380.578C450.074 380.764 450.331 381.082 450.494 381.53C450.662 381.973 450.746 382.575 450.746 383.336V388.222H449.129V383.441C449.129 383.016 449.094 382.671 449.024 382.405C448.959 382.134 448.828 381.938 448.632 381.817C448.441 381.695 448.151 381.644 447.764 381.663C447.493 381.667 447.185 381.735 446.84 381.866C446.495 381.992 446.18 382.157 445.895 382.363ZM453.151 388.222V380.438H454.761V388.222H453.151ZM453.865 379.059C453.594 379.059 453.356 378.972 453.151 378.8C452.95 378.627 452.85 378.391 452.85 378.093C452.85 377.887 452.906 377.703 453.018 377.54C453.134 377.372 453.281 377.239 453.459 377.141C453.636 377.038 453.82 376.987 454.012 376.987C454.343 376.987 454.593 377.08 454.761 377.267C454.929 377.453 455.013 377.682 455.013 377.953C455.013 378.275 454.896 378.541 454.663 378.751C454.434 378.956 454.168 379.059 453.865 379.059ZM456.734 388.222L456.44 387.662L460.15 382.202L460.556 381.628H456.86V380.424H462.488L462.726 381.082L459.044 386.486L458.638 387.06H462.586V388.222H456.734ZM467.11 388.334C465.99 388.334 465.126 387.979 464.52 387.27C463.913 386.56 463.61 385.576 463.61 384.316C463.61 383.56 463.743 382.883 464.009 382.286C464.279 381.688 464.676 381.215 465.199 380.865C465.726 380.515 466.372 380.335 467.138 380.326C467.53 380.316 467.898 380.372 468.244 380.494C468.589 380.615 468.895 380.799 469.161 381.047C469.427 381.289 469.637 381.597 469.791 381.971C469.949 382.344 470.036 382.78 470.05 383.28C470.05 383.574 470.047 383.837 470.043 384.071C470.038 384.299 470.017 384.502 469.98 384.68H464.548L464.688 383.658H468.538C468.561 383.284 468.538 382.932 468.468 382.601C468.402 382.265 468.258 381.994 468.034 381.789C467.814 381.579 467.488 381.474 467.054 381.474C466.69 381.474 466.363 381.576 466.074 381.782C465.784 381.982 465.56 382.323 465.402 382.804C465.243 383.284 465.178 383.942 465.206 384.778C465.234 385.366 465.353 385.83 465.563 386.171C465.773 386.511 466.048 386.754 466.389 386.899C466.729 387.043 467.11 387.116 467.53 387.116C467.707 387.116 467.924 387.097 468.181 387.06C468.437 387.018 468.685 386.966 468.923 386.906C469.165 386.84 469.35 386.77 469.476 386.696L469.784 387.62C469.611 387.76 469.375 387.883 469.077 387.991C468.783 388.098 468.463 388.182 468.118 388.243C467.772 388.303 467.436 388.334 467.11 388.334ZM476.638 388.222V387.186L476.554 387.144V381.628L476.61 381.586L476.554 380.046V376.84H478.164V388.222H476.638ZM474.461 388.334C473.915 388.334 473.407 388.198 472.935 387.928C472.469 387.657 472.091 387.246 471.801 386.696C471.517 386.145 471.374 385.447 471.374 384.603C471.374 383.758 471.538 383.016 471.864 382.377C472.191 381.733 472.646 381.231 473.229 380.872C473.817 380.508 474.506 380.326 475.294 380.326C475.775 380.326 476.179 380.384 476.505 380.501C476.832 380.613 477.04 380.708 477.128 380.788L476.554 381.817C476.414 381.695 476.228 381.611 475.994 381.565C475.766 381.518 475.493 381.495 475.175 381.495C474.779 381.495 474.419 381.604 474.097 381.824C473.78 382.043 473.526 382.37 473.334 382.804C473.143 383.238 473.045 383.774 473.04 384.414C473.026 385.328 473.185 385.998 473.516 386.423C473.848 386.847 474.312 387.06 474.909 387.06C475.273 387.06 475.598 386.992 475.882 386.857C476.172 386.721 476.396 386.591 476.554 386.465L476.82 387.263C476.708 387.379 476.559 387.522 476.372 387.69C476.186 387.858 475.938 388.007 475.63 388.138C475.322 388.268 474.933 388.334 474.461 388.334Z" fill="black" fill-opacity="0.8"/>
<rect x="125.984" y="366.777" width="205" height="34" rx="17" fill="url(#paint3_linear_3802_19133)"/>
<path d="M177.29 388.889C176.324 388.908 175.489 388.689 174.784 388.231C174.08 387.769 173.541 387.13 173.167 386.313C172.794 385.492 172.619 384.554 172.642 383.499C172.666 382.337 172.894 381.369 173.328 380.594C173.767 379.82 174.348 379.239 175.071 378.851C175.799 378.464 176.609 378.268 177.5 378.263C178.424 378.259 179.229 378.476 179.915 378.914C180.601 379.348 181.129 379.964 181.497 380.762C181.871 381.56 182.046 382.496 182.022 383.569C181.999 384.731 181.78 385.704 181.364 386.488C180.949 387.268 180.389 387.858 179.684 388.259C178.98 388.661 178.182 388.871 177.29 388.889ZM177.332 387.629C178.256 387.629 178.991 387.282 179.537 386.586C180.083 385.886 180.356 384.857 180.356 383.499C180.356 382.781 180.247 382.12 180.027 381.518C179.813 380.912 179.488 380.426 179.054 380.062C178.625 379.694 178.088 379.509 177.444 379.509C176.88 379.509 176.359 379.654 175.883 379.943C175.407 380.233 175.025 380.678 174.735 381.28C174.451 381.882 174.308 382.655 174.308 383.597C174.308 384.311 174.42 384.976 174.644 385.592C174.873 386.204 175.211 386.696 175.659 387.069C176.107 387.443 176.665 387.629 177.332 387.629ZM185.868 388.889L182.802 380.979H184.545L186.022 385.312L186.806 387.93H186.386L187.107 385.312L188.535 380.979H190.25L187.261 388.889H185.868ZM194.422 388.889C193.302 388.889 192.439 388.535 191.832 387.825C191.226 387.116 190.922 386.131 190.922 384.871C190.922 384.115 191.055 383.439 191.321 382.841C191.592 382.244 191.989 381.77 192.511 381.42C193.039 381.07 193.685 380.891 194.45 380.881C194.842 380.872 195.211 380.928 195.556 381.049C195.902 381.171 196.207 381.355 196.473 381.602C196.739 381.845 196.949 382.153 197.103 382.526C197.262 382.9 197.348 383.336 197.362 383.835C197.362 384.129 197.36 384.393 197.355 384.626C197.351 384.855 197.33 385.058 197.292 385.235H191.86L192 384.213H195.85C195.874 383.84 195.85 383.488 195.78 383.156C195.715 382.82 195.57 382.55 195.346 382.344C195.127 382.134 194.8 382.029 194.366 382.029C194.002 382.029 193.676 382.132 193.386 382.337C193.097 382.538 192.873 382.879 192.714 383.359C192.556 383.84 192.49 384.498 192.518 385.333C192.546 385.921 192.665 386.386 192.875 386.726C193.085 387.067 193.361 387.31 193.701 387.454C194.042 387.599 194.422 387.671 194.842 387.671C195.02 387.671 195.237 387.653 195.493 387.615C195.75 387.573 195.997 387.522 196.235 387.461C196.478 387.396 196.662 387.326 196.788 387.251L197.096 388.175C196.924 388.315 196.688 388.439 196.389 388.546C196.095 388.654 195.776 388.738 195.43 388.798C195.085 388.859 194.749 388.889 194.422 388.889ZM200.633 383.051L200.535 381.987C200.605 381.843 200.752 381.684 200.976 381.511C201.2 381.334 201.464 381.182 201.767 381.056C202.075 380.93 202.388 380.867 202.705 380.867C202.882 380.867 203.034 380.874 203.16 380.888C203.291 380.902 203.386 380.928 203.447 380.965V382.477C203.377 382.44 203.27 382.4 203.125 382.358C202.985 382.316 202.756 382.295 202.439 382.295C202.15 382.295 201.888 382.337 201.655 382.421C201.426 382.501 201.226 382.599 201.053 382.715C200.88 382.832 200.74 382.944 200.633 383.051ZM199.107 388.777V380.993H200.479L200.591 381.987L200.717 382.575V388.777H199.107ZM206.719 383.618C206.719 382.755 206.848 381.992 207.104 381.329C207.366 380.667 207.723 380.107 208.175 379.649C208.628 379.192 209.146 378.847 209.729 378.613C210.317 378.38 210.936 378.263 211.584 378.263C212.107 378.263 212.546 378.291 212.9 378.347C213.26 378.399 213.554 378.455 213.782 378.515C214.011 378.576 214.195 378.623 214.335 378.655L214.097 380.118C214.023 380.072 213.894 380.006 213.712 379.922C213.53 379.838 213.276 379.761 212.949 379.691C212.623 379.617 212.203 379.579 211.689 379.579C211.017 379.579 210.432 379.74 209.932 380.062C209.433 380.38 209.046 380.835 208.77 381.427C208.5 382.015 208.364 382.713 208.364 383.52C208.364 384.314 208.497 385.018 208.763 385.634C209.034 386.246 209.421 386.726 209.925 387.076C210.429 387.426 211.029 387.601 211.724 387.601C212.07 387.601 212.413 387.569 212.753 387.503C213.099 387.438 213.404 387.356 213.67 387.258C213.941 387.16 214.137 387.06 214.258 386.957V388.343C214.058 388.423 213.836 388.504 213.593 388.588C213.351 388.672 213.071 388.742 212.753 388.798C212.441 388.859 212.07 388.889 211.64 388.889C210.646 388.889 209.781 388.67 209.043 388.231C208.306 387.788 207.734 387.172 207.328 386.383C206.922 385.59 206.719 384.668 206.719 383.618ZM218.075 388.889C217.609 388.889 217.193 388.798 216.829 388.616C216.47 388.43 216.185 388.168 215.975 387.832C215.77 387.492 215.667 387.09 215.667 386.628C215.667 386.129 215.8 385.707 216.066 385.361C216.337 385.011 216.699 384.738 217.151 384.542C217.45 384.421 217.774 384.325 218.124 384.255C218.474 384.181 218.824 384.129 219.174 384.101C219.524 384.069 219.849 384.052 220.147 384.052L220.483 384.479L220.147 385.046C219.965 385.046 219.746 385.06 219.489 385.088C219.237 385.112 218.988 385.151 218.74 385.207C218.493 385.259 218.283 385.326 218.11 385.41C217.872 385.518 217.674 385.655 217.515 385.823C217.357 385.991 217.277 386.225 217.277 386.523C217.277 386.915 217.385 387.212 217.599 387.412C217.819 387.613 218.143 387.713 218.572 387.713C218.792 387.713 219.013 387.681 219.237 387.615C219.461 387.55 219.655 387.475 219.818 387.391C219.986 387.307 220.096 387.235 220.147 387.174L220.469 387.517L220.238 388.119C220.033 388.306 219.737 388.481 219.349 388.644C218.962 388.808 218.537 388.889 218.075 388.889ZM221.764 388.777H220.238V387.615H220.147V383.317C220.147 382.86 220.026 382.559 219.783 382.414C219.545 382.265 219.205 382.19 218.761 382.19C218.467 382.19 218.164 382.221 217.851 382.281C217.539 382.337 217.252 382.41 216.99 382.498C216.729 382.582 216.528 382.669 216.388 382.757L216.01 381.595C216.118 381.53 216.323 381.439 216.626 381.322C216.934 381.206 217.291 381.101 217.697 381.007C218.108 380.909 218.514 380.86 218.915 380.86C219.499 380.86 220.003 380.928 220.427 381.063C220.857 381.199 221.186 381.451 221.414 381.819C221.648 382.183 221.764 382.713 221.764 383.408V388.777ZM223.978 392.235V380.979H225.448V381.931L225.588 382.099V388.133L225.574 388.455L225.588 389.729V392.235H223.978ZM226.855 388.889C226.374 388.889 225.973 388.829 225.651 388.707C225.329 388.586 225.121 388.488 225.028 388.413L225.588 387.377C225.737 387.503 225.924 387.594 226.148 387.65C226.376 387.702 226.649 387.727 226.967 387.727C227.368 387.727 227.73 387.615 228.052 387.391C228.374 387.163 228.628 386.831 228.815 386.397C229.006 385.959 229.106 385.424 229.116 384.794C229.125 383.861 228.962 383.184 228.626 382.764C228.294 382.34 227.83 382.127 227.233 382.127C226.869 382.127 226.544 382.197 226.26 382.337C225.98 382.473 225.756 382.606 225.588 382.736L225.336 381.938C225.443 381.826 225.59 381.686 225.777 381.518C225.963 381.35 226.211 381.203 226.519 381.077C226.827 380.947 227.214 380.881 227.681 380.881C228.231 380.881 228.74 381.017 229.207 381.287C229.678 381.553 230.056 381.962 230.341 382.512C230.625 383.058 230.768 383.751 230.768 384.591C230.768 385.436 230.604 386.183 230.278 386.831C229.956 387.475 229.501 387.979 228.913 388.343C228.329 388.707 227.643 388.889 226.855 388.889ZM234.195 388.889C233.728 388.889 233.313 388.798 232.949 388.616C232.589 388.43 232.305 388.168 232.095 387.832C231.889 387.492 231.787 387.09 231.787 386.628C231.787 386.129 231.92 385.707 232.186 385.361C232.456 385.011 232.818 384.738 233.271 384.542C233.569 384.421 233.894 384.325 234.244 384.255C234.594 384.181 234.944 384.129 235.294 384.101C235.644 384.069 235.968 384.052 236.267 384.052L236.603 384.479L236.267 385.046C236.085 385.046 235.865 385.06 235.609 385.088C235.357 385.112 235.107 385.151 234.86 385.207C234.612 385.259 234.402 385.326 234.23 385.41C233.992 385.518 233.793 385.655 233.635 385.823C233.476 385.991 233.397 386.225 233.397 386.523C233.397 386.915 233.504 387.212 233.719 387.412C233.938 387.613 234.262 387.713 234.692 387.713C234.911 387.713 235.133 387.681 235.357 387.615C235.581 387.55 235.774 387.475 235.938 387.391C236.106 387.307 236.215 387.235 236.267 387.174L236.589 387.517L236.358 388.119C236.152 388.306 235.856 388.481 235.469 388.644C235.081 388.808 234.657 388.889 234.195 388.889ZM237.884 388.777H236.358V387.615H236.267V383.317C236.267 382.86 236.145 382.559 235.903 382.414C235.665 382.265 235.324 382.19 234.881 382.19C234.587 382.19 234.283 382.221 233.971 382.281C233.658 382.337 233.371 382.41 233.11 382.498C232.848 382.582 232.648 382.669 232.508 382.757L232.13 381.595C232.237 381.53 232.442 381.439 232.746 381.322C233.054 381.206 233.411 381.101 233.817 381.007C234.227 380.909 234.633 380.86 235.035 380.86C235.618 380.86 236.122 380.928 236.547 381.063C236.976 381.199 237.305 381.451 237.534 381.819C237.767 382.183 237.884 382.713 237.884 383.408V388.777ZM239.455 384.969C239.455 384.199 239.595 383.506 239.875 382.89C240.155 382.274 240.575 381.787 241.135 381.427C241.695 381.063 242.395 380.881 243.235 380.881C243.725 380.881 244.14 380.926 244.481 381.014C244.821 381.103 245.055 381.189 245.181 381.273L244.929 382.547C244.733 382.412 244.497 382.312 244.222 382.246C243.946 382.176 243.613 382.141 243.221 382.141C242.871 382.141 242.532 382.228 242.206 382.4C241.879 382.568 241.606 382.839 241.387 383.212C241.167 383.586 241.046 384.078 241.023 384.689C241.004 385.333 241.088 385.877 241.275 386.32C241.466 386.759 241.727 387.093 242.059 387.321C242.395 387.545 242.768 387.657 243.179 387.657C243.566 387.657 243.923 387.608 244.25 387.51C244.581 387.412 244.831 387.312 244.999 387.209L245.307 388.147C245.069 388.371 244.733 388.551 244.299 388.686C243.865 388.822 243.403 388.889 242.913 388.889C242.171 388.889 241.543 388.717 241.03 388.371C240.516 388.026 240.124 387.559 239.854 386.971C239.588 386.379 239.455 385.711 239.455 384.969ZM246.99 388.777V380.993H248.6V388.777H246.99ZM247.704 379.614C247.434 379.614 247.196 379.528 246.99 379.355C246.79 379.183 246.689 378.947 246.689 378.648C246.689 378.443 246.745 378.259 246.857 378.095C246.974 377.927 247.121 377.794 247.298 377.696C247.476 377.594 247.66 377.542 247.851 377.542C248.183 377.542 248.432 377.636 248.6 377.822C248.768 378.009 248.852 378.238 248.852 378.508C248.852 378.83 248.736 379.096 248.502 379.306C248.274 379.512 248.008 379.614 247.704 379.614ZM253.233 388.889C252.865 388.889 252.54 388.831 252.26 388.714C251.98 388.598 251.761 388.392 251.602 388.098C251.448 387.8 251.371 387.377 251.371 386.831V382.169H250.363V381.301C250.709 381.203 250.972 381.122 251.154 381.056C251.336 380.986 251.469 380.839 251.553 380.615C251.591 380.513 251.633 380.391 251.679 380.251C251.726 380.107 251.777 379.948 251.833 379.775C251.889 379.598 251.95 379.407 252.015 379.201H252.981V380.979H255.165V382.169H252.981V385.977C252.981 386.481 253.002 386.85 253.044 387.083C253.091 387.312 253.175 387.459 253.296 387.524C253.422 387.585 253.607 387.615 253.849 387.615C253.98 387.615 254.129 387.601 254.297 387.573C254.47 387.541 254.633 387.501 254.787 387.454C254.946 387.408 255.067 387.359 255.151 387.307L255.417 388.231C255.277 388.339 255.088 388.444 254.85 388.546C254.617 388.644 254.358 388.726 254.073 388.791C253.793 388.857 253.513 388.889 253.233 388.889ZM256.745 392.137V390.821C256.825 390.849 256.939 390.873 257.088 390.891C257.242 390.91 257.357 390.919 257.431 390.919C257.627 390.919 257.861 390.863 258.131 390.751C258.402 390.644 258.661 390.422 258.908 390.086C259.16 389.755 259.354 389.253 259.489 388.581L259.587 388.777H258.915L256.129 380.979H257.865L259.489 386.033L260.147 388.217H259.727L260.301 386.033L261.687 380.979H263.423L260.833 389.015C260.525 389.953 260.159 390.67 259.734 391.164C259.31 391.664 258.845 391.983 258.341 392.123C258.243 392.156 258.115 392.184 257.956 392.207C257.798 392.235 257.665 392.249 257.557 392.249C257.487 392.249 257.394 392.242 257.277 392.228C257.161 392.219 257.049 392.205 256.941 392.186C256.839 392.172 256.773 392.156 256.745 392.137Z" fill="black" fill-opacity="0.8"/>
<defs>
<linearGradient id="paint0_linear_3802_19133" x1="89.3432" y1="102.722" x2="680.426" y2="190.075" gradientUnits="userSpaceOnUse">
<stop stop-color="#CCE07C"/>
<stop offset="1" stop-color="#7FD1C3"/>
</linearGradient>
<linearGradient id="paint1_linear_3802_19133" x1="219.971" y1="87.2217" x2="220.961" y2="108.188" gradientUnits="userSpaceOnUse">
<stop stop-color="#CCE07C"/>
<stop offset="1" stop-color="#7FD1C3"/>
</linearGradient>
<linearGradient id="paint2_linear_3802_19133" x1="64.5381" y1="76.2217" x2="211.301" y2="132.114" gradientUnits="userSpaceOnUse">
<stop stop-color="#CCE07C"/>
<stop offset="1" stop-color="#7FD1C3"/>
</linearGradient>
<linearGradient id="paint3_linear_3802_19133" x1="136.019" y1="366.777" x2="339.746" y2="430.568" gradientUnits="userSpaceOnUse">
<stop stop-color="#CCE07C"/>
<stop offset="1" stop-color="#7FD1C3"/>
</linearGradient>
</defs>
</svg>
