<svg xmlns="http://www.w3.org/2000/svg" width="32" height="32" viewBox="0 0 32 32" fill="none">
  <path d="M5.33594 24.666V12.666C5.33594 11.5614 6.23137 10.666 7.33594 10.666H14.9359H19.7359H27.3359C28.4405 10.666 29.3359 11.5614 29.3359 12.666V24.666C29.3359 25.7706 28.4405 26.666 27.3359 26.666H19.7359H14.9359H7.33594C6.23137 26.666 5.33594 25.7706 5.33594 24.666Z" stroke="white" stroke-width="1.5" stroke-linecap="round" stroke-linejoin="round"/>
  <path d="M24.6641 18.6793L24.6774 18.6645" stroke="white" stroke-width="1.5" stroke-linecap="round" stroke-linejoin="round"/>
  <path d="M10 18.6793L10.0133 18.6645" stroke="white" stroke-width="1.5" stroke-linecap="round" stroke-linejoin="round"/>
  <path d="M5.33594 21.334H3.33594C2.23137 21.334 1.33594 20.4386 1.33594 19.334V7.33398C1.33594 6.22941 2.23137 5.33398 3.33594 5.33398H23.3359C24.4405 5.33398 25.3359 6.22942 25.3359 7.33398V10.6673" stroke="white" stroke-width="1.5" stroke-linecap="round" stroke-linejoin="round"/>
  <path d="M17.3333 21.3333C15.8606 21.3333 14.6667 20.1394 14.6667 18.6667C14.6667 17.1939 15.8606 16 17.3333 16C18.8061 16 20 17.1939 20 18.6667C20 20.1394 18.8061 21.3333 17.3333 21.3333Z" stroke="white" stroke-width="1.5" stroke-linecap="round" stroke-linejoin="round"/>
</svg>