<svg xmlns="http://www.w3.org/2000/svg" width="32" height="32" viewBox="0 0 32 32" fill="none">
  <path d="M4 27.4V4.6C4 4.26863 4.26863 4 4.6 4H27.4C27.7314 4 28 4.26863 28 4.6V27.4C28 27.7314 27.7314 28 27.4 28H4.6C4.26863 28 4 27.7314 4 27.4Z" stroke="white" stroke-width="1.5"/>
  <path d="M20 11.334C19.0867 10.4207 17.4782 9.78539 16 9.74561M12 20.0007C12.8593 21.1464 14.457 21.7999 16 21.8553M16 9.74561C14.2412 9.69828 12.6667 10.494 12.6667 12.6673C12.6667 16.6673 20 14.6673 20 18.6673C20 20.9487 18.0482 21.9289 16 21.8553M16 9.74561V7.33398M16 21.8553V24.6673" stroke="white" stroke-width="1.5" stroke-linecap="round" stroke-linejoin="round"/>
</svg>