<svg xmlns="http://www.w3.org/2000/svg" width="33" height="32" viewBox="0 0 33 32" fill="none">
  <path d="M11.8359 5.33398H7.83594C6.73137 5.33398 5.83594 6.22942 5.83594 7.33398V27.334C5.83594 28.4386 6.73137 29.334 7.83594 29.334H16.5026" stroke="white" stroke-width="1.5" stroke-linecap="round"/>
  <path d="M21.1641 5.33398H25.1641C26.2686 5.33398 27.1641 6.22942 27.1641 7.33399V20.0007" stroke="white" stroke-width="1.5" stroke-linecap="round"/>
  <path d="M11.1641 8.73398V6.00065C11.1641 5.63246 11.4625 5.33398 11.8307 5.33398C12.1989 5.33398 12.503 5.03537 12.5661 4.67263C12.7636 3.53627 13.5294 1.33398 16.4974 1.33398C19.4654 1.33398 20.2311 3.53627 20.4287 4.67263C20.4918 5.03537 20.7959 5.33398 21.1641 5.33398C21.5323 5.33398 21.8307 5.63246 21.8307 6.00065V8.73398C21.8307 9.06535 21.5621 9.33398 21.2307 9.33398H11.7641C11.4327 9.33398 11.1641 9.06535 11.1641 8.73398Z" stroke="white" stroke-width="1.5" stroke-linecap="round"/>
  <path d="M21.1641 27.334L23.8307 30.0007L30.4974 23.334" stroke="white" stroke-width="1.5" stroke-linecap="round" stroke-linejoin="round"/>
</svg>